<?xml version="1.0" encoding="UTF-8"?>
<svg id="_レイヤー_1" data-name="レイヤー 1" xmlns="http://www.w3.org/2000/svg" viewBox="0 0 60.73 60.73">
  <defs>
    <style>
      .cls-1 {
        fill: #f7c1c1;
      }

      .cls-2 {
        fill: #7d5b4e;
      }

      .cls-3 {
        fill: #e7526a;
      }
    </style>
  </defs>
  <circle class="cls-1" cx="30.37" cy="30.37" r="30.37"/>
  <path class="cls-3" d="M19.85,33.18s-.4-.22-.62-.33c-.21-.08-5.23-2.32-6.72-3.38-1.49-.93-3.45-2.48-4.31-4.46-.6-1.43-.28-3.29.1-4.12s1.56-2.76,4.18-2.95c2.24-.13,3.36.63,3.47.69s1.45.87,1.71,1.61c.12-.52.22-1.11.79-1.78s2.08-1.99,4.32-2.24,4.16,1.38,4.83,2.85.92,3.27-.51,5.98c-1.44,2.71-4.57,5.66-4.74,5.81s-2.43,2.2-2.5,2.32Z"/>
  <path class="cls-3" d="M41.67,33.12s-.29-.34-.45-.51c-.16-.15-3.95-3.91-4.94-5.39-1.03-1.36-2.28-3.44-2.37-5.54-.05-1.51.88-3.08,1.51-3.71s2.37-1.97,4.81-1.24c2.08.66,2.83,1.73,2.91,1.82s1.02,1.29,1,2.06c.29-.43.58-.93,1.34-1.34s2.58-1.09,4.69-.54,3.3,2.69,3.4,4.26-.29,3.29-2.53,5.26-6.1,3.56-6.3,3.64-2.97,1.16-3.07,1.24Z"/>
  <path class="cls-2" d="M31.19,53.07c9.91,0,13.03-7.72,13.53-12.44.17-1.57-1.05-2.86-2.37-2.49-5.38,1.5-17.1,1.26-24.02-.37-1.26-.3-2.42.9-2.31,2.39.34,4.69,3.75,12.91,15.17,12.91Z"/>
</svg>