<?xml version="1.0" encoding="UTF-8"?>
<svg id="_レイヤー_1" data-name="レイヤー 1" xmlns="http://www.w3.org/2000/svg" viewBox="0 0 60.99 60.2">
  <defs>
    <style>
      .cls-1 {
        fill: #f3d35b;
      }

      .cls-2 {
        fill: #d33130;
      }

      .cls-3 {
        fill: #f6d9d8;
      }

      .cls-4 {
        fill: #f5dcdc;
      }

      .cls-5 {
        fill: #fadad8;
      }

      .cls-6 {
        fill: #d63c31;
      }

      .cls-7 {
        fill: #fbe5e1;
      }

      .cls-8 {
        fill: #f0d6d4;
      }

      .cls-9 {
        fill: #f2b041;
      }

      .cls-10 {
        fill: #d43934;
      }

      .cls-11 {
        fill: #f9f29e;
      }

      .cls-12 {
        fill: #7b5a4e;
      }

      .cls-13 {
        fill: #d4372e;
      }

      .cls-14 {
        fill: #552d17;
      }

      .cls-15 {
        fill: #d94a42;
      }

      .cls-16 {
        fill: #4d2711;
      }

      .cls-17 {
        fill: #f9e5e6;
      }

      .cls-18 {
        fill: #f2b040;
      }

      .cls-19 {
        fill: #d4362c;
      }

      .cls-20 {
        fill: #eed2d0;
      }

      .cls-21 {
        fill: #f4dbd9;
      }

      .cls-22 {
        fill: #48220f;
      }

      .cls-23 {
        fill: #f5dfde;
      }

      .cls-24 {
        fill: #4f2912;
      }

      .cls-25 {
        fill: #fbdfdd;
      }

      .cls-26 {
        fill: #fad7d5;
      }

      .cls-27 {
        fill: #f9d4d1;
      }
    </style>
  </defs>
  <path class="cls-11" d="M28.72.05c24.13-1.32,40.29,23.83,28.13,44.99-12.03,20.92-42.89,20.01-53.59-1.56C-6.55,23.73,6.92,1.24,28.72.05ZM15.44,8.41l-.07.04.43.85s0,.06,0,.09c.03.12.09.17.09.18,0,.03,0,.06,0,.09.02.15.09.25.09.27,0,.03,0,.06,0,.09.15,1.91-.23,3.39-1.02,5.09-.03.07-.19.33-.05.35-.98,1.95-2.33,3.74-2.86,5.89-.14,0-.15-.32-.18-.45v-1.02s-.18-1.47-.18-1.47c0-.06,0-.12,0-.18l.18-.06v-.48s-.18,0-.18,0c0-.06,0-.12,0-.18.02.02.09-.01.09-.04,0-.1-.13,0-.09.04-.28-.21-1.2.76-1.38.98-1.09,1.28-1.68,3.19-2.01,4.82-.16.81-.21,1.51-.18,2.37,0,.17-.09.36.18.31.24,4.25,3.19,7.33,7.14,8.47.41.12.83.27,1.25.36.27.06.64.22.89,0h.62l.98.09c.02-.1-.09-.08-.09-.09,0-.12,1.99-.5,2.32-.62,2.19-.8,3.91-2.42,4.99-4.46.3-.57.58-1.15.71-1.78.22.04.2-.1.24-.25.62-2.05.48-4.65-.24-6.62-.77-2.11-1.65-3.81-2.14-6.06,0-.01.09-.16,0-.27h-.09c-.01.05.02.16,0,.18-.01.01-.08-.01-.09,0-.07.08-.08.17-.09.18-.03.03-.07.06-.09.09-.4.53-.61.85-.93,1.44-.05.09-.24.29-.05.35-.03.07-.07.13-.09.18l-.27.27c-.15-.17.06-.76-.27-.71,0-.03,0-.06,0-.09s0-.06,0-.09,0-.06,0-.09c0-.01.09-.06.08-.2-.02-.16-.13-.24-.16-.34-.09-.23-.17-.49-.27-.71-.03-.07-.07-.13-.09-.18,0-.23-.09-.42-.18-.62-1.03-2.39-4.09-5.32-6.62-6.01-.1-.03-.29-.13-.34.03ZM41.22,9.3c-.17.29.06.77.09,1.12.03.39-.1.85.09,1.2,0,.21-.07.47-.09.71,0,.06,0,.12,0,.18-.17.21-.18.54-.18.8-1.25,2.71-3.21,5.11-3.12,8.29-.22-.21-.39-.53-.53-.8-.01-.02.01-.07,0-.09-.03-.05-.07-.13-.09-.18l-.36-1.69c0-.06,0-.12,0-.18.01-.41,0-.83,0-1.25-.08-.09-.45.29-.53.36-1.37,1.13-2,3.04-2.32,4.73-.16.84-.25,1.55-.27,2.41,0,.21,0,.42,0,.62,0,.03,0,.06,0,.09.06,1.08.24,1.94.62,2.94,1.13,2.92,3.56,5,6.6,5.71,1.05.24,1.77.31,2.85.27.06,0,.12,0,.18,0,.63-.03,1.17-.12,1.78-.27,2.32-.56,3.45-1.51,5.08-3.12.1-.1.28-.13.27-.36.03-.03.06-.06.09-.09.07-.08.08-.16.09-.18.03-.03.07-.06.09-.09,2.48-3.45,2.06-7.53.18-11.15-.04-.07-.12-.15-.18-.27-.87-1.76-1.78-3.54-2.32-5.44-.2-.04-.14.01-.2.11-.16.29-.38,1.03-.51,1.4-.03.07-.14.21-.2.38-.12.34-.2.78-.24,1.14h-.27c.07-.27-.11-.39-.18-.54-.01-.03-.07-.06-.09-.09.17-.09.06-.3.03-.43-.31-1.08-.96-2.26-1.54-3.05-1.04-1.39-3.24-3.95-5.04-4.19-.14-.02-.15,0-.13.13l.35.85ZM16.87,38.11c-.33-.04-.58,0-.89.09-.09-.17-.51.1-.6.16-1.71,1.18-.93,3.72-.21,5.28.31.82.79,1.66,1.25,2.41.87,1.42,1.69,2.27,2.76,3.48.08.09.11.36.45.36.03.03.06.06.09.09,1.43,1.47,4.28,2.79,6.33,3.3,1.81.45,4.33.63,6.15.36.62-.09,1.35-.23,1.96-.36.37-.08.63-.16.98-.27.16.18.52,0,.71-.05,1.48-.42,2.79-1.11,4.01-2.01,1.68-1.23,3.04-2.54,4.19-4.28.41-.63.96-1.46,1.25-2.14.22-.24.4-.74.51-1.05.18-.51.28-1.01.39-1.53.2-.97.49-2.21-.27-3.03-.02-.03-.52-.44-.56-.47-.59-.35-1.88-.23-2.47.11-.91.16-1.55.46-2.5.62.05-.27-.13-.18-.3-.17-1.89.17-3.64.51-5.59.61-3.24.17-6.49.16-9.72-.18-1-.1-2.04-.19-3.03-.36-.61-.1-1.26-.23-1.87-.36-.8-.16-1.59-.42-2.39-.6-.17-.04-.51-.18-.64-.03Z"/>
  <path class="cls-12" d="M17.67,38.38c.83.2,1.56.29,2.23.45.56.13.73.2,1.34.27.09.27.4.16.62.18.03,0,.06,0,.09,0,.46.19,1.09.29,1.58.33.07,0,.11-.06.11-.06.18.01.36-.01.54,0-.05.28.14.16.31.18.63.07,1.24.08,1.83.09.33,0,.66,0,.98,0-.05.27.14.17.31.18,1.09.04,2.53.13,3.58.09.17,0,.36.09.31-.18.12,0,.24,0,.36,0,.09.15.34.09.49.09,1.47.02,2.9-.09,4.33-.27,1.22-.15,2.54-.32,3.75-.54.94-.17,1.58-.47,2.5-.62.3-.05.79-.14,1.13-.17.77-.06,1.46.15,1.91.79.07.61.19.98.15,1.62-.01.15-.19.28.12.25-.04.32-.12.59-.18.89-.07.37-.17.71-.27,1.07l-1.69,3.66c-1.15,1.74-2.51,3.05-4.19,4.28-1.5.89-3.06,1.54-4.73,2.05-.35.11-.61.19-.98.27.04-.29-.09-.15-.25-.12-1.85.31-3.78.4-5.63.3-.81-.04-1.45-.17-2.23-.36-.22-.05-.51-.12-.71-.18v-.17c-.32,0-.74-.35-.98-.19-.07-.03-.13-.07-.18-.09-.64-.28-1.46-.64-2.03-1.06l-1-.45c-.49-.32-.93-.68-1.43-.98-.03-.03-.06-.06-.09-.09-.12-.13-.29-.38-.45-.36-1.07-1.21-1.9-2.06-2.76-3.48.24-.17-.13-.34-.17-.43-.65-1.24-1.49-3.32-1.61-4.7-.01-.15-.03-1.19,0-1.29,0-.04.32-.62.35-.67.3-.42.99-.62,1.49-.65.41-.03.8.19,1.19.08Z"/>
  <path class="cls-15" d="M22.4,14.38l-.08.05c-.02.22.18.39.26.57.02.05.06.11.09.18-.16.41.21.97.27,1.34,0,.03,0,.06,0,.09.07.46.03,1.09.09,1.56.02.14.03.21.18.13.07-.04.28-.97.36-1.16.02-.05.06-.11.09-.18.27-.61.68-1.19.98-1.78.02-.03.06-.06.09-.09l.09-.18s.08.01.09,0l.09.09c.49,2.25,1.37,3.95,2.14,6.06-.05.21.05.36.09.54-.17.09-.07.31-.05.45.12.7.27,1.38.32,2.09l-.18,3.17c-.03.09-.08.15-.09.18-.2.63-.47,1.28-.76,1.88-.03.07-.19.33-.05.35-1.08,2.04-2.81,3.66-4.99,4.46-.08-.18-.28-.03-.4,0-.57.15-1.15.36-1.74.36l1.07-.45c4.28-2.37,4.77-7.08,2.81-11.24-.04.57-1.47,3.25-2.19,2.34-.57-.71-.21-1.97-.17-2.75.09-2.01-.17-3.59-1.35-5.25-.35-.5-.84-1.07-1.41-1.31v1.74c0,2.18-2.82,5.6-3.76,7.65-.12.27-.26.86-.39,1.04-.1.14-.1.06-.19.02-.54-.22-.88-.82-1.25-1.24-.05-.06,0-.17-.2-.11-.32,2.01-.41,4.15.4,6.06.69,1.62,2.19,2.85,3.92,3.22.04.02.05.04.05.09,0,.01-.08.05-.09.09l.89.18-1.96-.18c-3.94-1.15-6.89-4.22-7.14-8.47-.05-.88.04-1.79,0-2.68.32-1.63.92-3.54,2.01-4.82.19-.22,1.11-1.19,1.38-.98,0,.06,0,.12,0,.18,0,.18,0,.36,0,.54,0,.06,0,.12,0,.18.01.91-.05,1.6.18,2.5.03.12.04.44.18.45.52-2.15,1.88-3.94,2.86-5.89.3-.61.7-1.3.89-1.96.64-1.33.75-3.62-.18-4.82-.07-.09-.15-.15-.18-.27.05-.16.23-.06.34-.03,2.53.69,5.59,3.61,6.62,6.01Z"/>
  <path class="cls-15" d="M46.04,12.51c.74,1.06,1.01,2.33,1.52,3.48.01.03.08.06.09.09l.36,1.78.54-2.76c.14-.37.35-1.11.51-1.4.06-.1,0-.15.2-.11.54,1.9,1.45,3.68,2.32,5.44.03.44.32.95.54,1.34.02.05.06.11.09.18l.24,1.05c0,.16.16.28.21.37.02.05.06.04.09.18,0,.01-.06-.02,0,.18,0,.03.07.08.09.18-.18.15-.03.55.09.71,0,.03,0,.06,0,.09.01.3-.01.6,0,.89h.18c.11,2.28-.32,4.3-1.52,6.24-.02.03-.06.06-.09.09l-.09.18s-.06.06-.09.09c-.09.12-.21.22-.27.36-1.64,1.61-2.76,2.57-5.08,3.12l-1.43.09c.07-.18.36-.13.43-.2.05-.04,0-.14.01-.16.05-.01.12,0,.18,0,.34-.04.18.08.62-.18,1.6-.92,2.95-2.21,3.52-4.01.76-2.4.23-5.63-1.07-7.76-.22.82-.43,2.42-1.29,2.81-.74.34-.75,0-.87-.65-.18-1.01-.07-2.06-.22-3.08-.3-2.07-1.46-4.02-3.15-5.23.08.88.14,1.74.03,2.62-.34,2.69-2.19,4.45-3.09,6.99-.23.66-.02,1.32-.86.72-.37-.27-.75-.65-1.09-.97-.54,3.35.38,6.87,3.67,8.37.33.15.66.18.92.28.16.06.38.21.54.27.52.2.33.12.8.09.06,0,.12,0,.18,0,.06.13.24.09.36.09v.18c-.06,0-.12,0-.18,0l-2.85-.27c-3.04-.71-5.47-2.79-6.6-5.71.17-.08.04-.29,0-.4-.23-.76-.48-1.75-.54-2.54,0-.03,0-.06,0-.09-.01-.2,0-.42,0-.62.02-.58.18-1.33.24-1.94.02-.14.1-.37-.06-.46.32-1.69.94-3.6,2.32-4.73l.36-.04c0,.21,0,.42,0,.63,0,.17-.09.36.18.31,0,.06,0,.12,0,.18,0,.02-.1.09-.1.31,0,.57.24.91.45,1.38.02.05.06.12.09.18l-.09.05.09.04c.14.27.31.59.53.8-.08-3.19,1.87-5.58,3.12-8.29.23-.49.15-.36.18-.8,0-.06,0-.12,0-.18.29.05.15-.15.17-.31.08-.67.23-2.09-.17-2.63-.02-.03-.07-.06-.09-.09l-.35-.85c-.02-.14,0-.15.13-.13,1.8.24,4.01,2.8,5.04,4.19Z"/>
  <path class="cls-3" d="M34.53,39.62v.18c-.89.04-1.78.08-2.68.09-.12,0-.24,0-.36,0-1.4,0-2.79-.05-4.19-.09-.33,0-.66,0-.98,0-.5-.13-1.01-.14-1.52-.18v-.18c3.23.34,6.48.35,9.72.18Z"/>
  <path class="cls-10" d="M20.35,34.09l-1.07.45c.59,0,1.17-.2,1.74-.36.12-.03.32-.18.4,0-.33.12-2.31.5-2.32.62h-2.41c-.41-.09-.84-.24-1.25-.36l1.96.18-.89-.18s.09-.07.09-.09c.11.01.25-.02.36,0,.97.15,1.16.17,2.14,0,.42-.07.84-.15,1.25-.27Z"/>
  <path class="cls-27" d="M51.57,30.44c1.2-1.94,1.62-3.97,1.52-6.24-.01-.27-.04-.66-.18-.89,0-.03,0-.06,0-.09-.02-.28-.03-.44-.09-.71-.02-.1-.08-.15-.09-.18v-.18c-.03-.14-.07-.13-.09-.18,0-.51-.27-.97-.45-1.43-.03-.07-.07-.13-.09-.18-.13-.34-.27-.71-.36-1.07,1.88,3.61,2.3,7.7-.18,11.15Z"/>
  <path class="cls-4" d="M34.53,39.62c1.95-.1,3.7-.45,5.59-.61.17-.02.35-.1.3.17-1.2.21-2.52.39-3.75.54-.72-.06-1.43.05-2.14.09v-.18Z"/>
  <path class="cls-5" d="M27.13,21.07c.72,1.97.86,4.58.24,6.62-.04.15-.02.29-.24.25.03-.15.09-.29.09-.45,0-.03.06-.09.09-.18.51-1.64.3-4.05-.09-5.71-.04-.17-.14-.33-.09-.54Z"/>
  <path class="cls-16" d="M28.29,53.45c1.86.1,3.78.01,5.63-.3.17-.03.29-.17.25.12-.61.13-1.34.26-1.96.36-.19-.26-.61,0-.76,0h-2.32c-.15,0-.55-.17-.79-.11l-.06-.07Z"/>
  <path class="cls-24" d="M14.64,39.62c-.02.1-.01,1.15,0,1.29.12,1.38.96,3.46,1.61,4.7.04.09.41.26.17.43-.46-.75-.94-1.58-1.25-2.41-.32-.87-.58-1.84-.62-2.76l-.09-.36c0-.06,0-.12,0-.18.14-.08.08-.3.09-.45.01-.08-.02-.2,0-.27h.09Z"/>
  <path class="cls-17" d="M28.29,53.45l.06.07c.24-.06.64.11.79.11h2.32c.14,0,.57-.26.76,0-1.83.28-4.35.09-6.15-.36v-.18c.78.18,1.42.31,2.23.36Z"/>
  <path class="cls-26" d="M15.8,13.49c-.19.66-.59,1.35-.89,1.96-.14-.03.01-.28.05-.35.79-1.69,1.18-3.18,1.02-5.09.37.98.12,2.47-.18,3.48Z"/>
  <path class="cls-19" d="M15.8,13.49c.3-1.01.55-2.49.18-3.48,0-.03,0-.06,0-.09l-.09-.27s0-.06,0-.09l-.09-.18s0-.06,0-.09c-.05-.21-.13-.41-.18-.62.93,1.2.82,3.49.18,4.82Z"/>
  <path class="cls-25" d="M48.53,15.1l-.54,2.76-.36-1.78c.07.15.25.27.18.54h.27c.04-.36.12-.8.24-1.14.06-.16.18-.3.2-.38Z"/>
  <path class="cls-20" d="M19.9,38.73v.09c-.67-.16-1.4-.24-2.23-.45-.2-.05-.61-.25-.8-.27.14-.15.47,0,.64.03.8.17,1.6.43,2.39.6Z"/>
  <path class="cls-8" d="M39.88,50.95c-1.23.9-2.54,1.59-4.01,2.01-.19.06-.55.23-.71.05,1.67-.51,3.22-1.16,4.73-2.05Z"/>
  <path class="cls-4" d="M24.81,39.45v.18c-.23-.02-.43-.07-.62-.09-.18-.01-.36.01-.54,0-.51-.22-1.14-.22-1.69-.27-.03,0-.06,0-.09,0,0-.04-.05-.08-.09-.09v-.09c.99.17,2.03.25,3.03.36Z"/>
  <path class="cls-13" d="M34.53,28.56c-.39-1-.57-1.87-.62-2.94h.09c.06.79.31,1.78.54,2.54.04.12.17.32,0,.4Z"/>
  <path class="cls-6" d="M41.31,9.39c.4.54.26,1.96.17,2.63-.02.17.11.36-.17.31.02-.25.09-.5.09-.71.01-.75,0-1.49-.09-2.23Z"/>
  <path class="cls-16" d="M45.95,38.91c0,.06,0,.12,0,.18,0,.03,0,.06,0,.09-.44-.64-1.14-.85-1.91-.79-.34.03-.82.12-1.13.17.59-.34,1.88-.46,2.47-.11.04.02.53.44.56.47Z"/>
  <path class="cls-14" d="M16.87,38.11c.19.02.61.22.8.27-.39.12-.78-.1-1.19-.08-.49.03-1.19.23-1.49.65-.04.05-.34.64-.35.67h-.09c.21-.72.7-1.23,1.43-1.43.31-.08.56-.13.89-.09Z"/>
  <path class="cls-7" d="M8.31,25.98c-.27.05-.17-.14-.18-.31-.03-.86.02-1.55.18-2.37.04.89-.05,1.79,0,2.68Z"/>
  <path class="cls-8" d="M21.78,39.09v.09c-.2-.02-.38-.07-.54-.09-.61-.07-.78-.14-1.34-.27v-.09c.61.12,1.26.25,1.87.36Z"/>
  <path class="cls-19" d="M34,24.91h-.09c.02-.86.11-1.56.27-2.41.17.09.08.32.06.46-.07.62-.22,1.36-.24,1.94Z"/>
  <path class="cls-19" d="M43.99,34.54c-1.08.04-1.81-.02-2.85-.27l2.85.27Z"/>
  <path class="cls-17" d="M46.21,41.94h-.18c.06-.3.14-.58.18-.89.09-.7.21-1.35-.27-1.96,0-.06,0-.12,0-.18.75.83.47,2.06.27,3.03Z"/>
  <path class="cls-23" d="M15.98,38.2c-.72.2-1.22.71-1.43,1.43-.02.07.01.19,0,.27-.02.13-.08.2-.09.45,0,.06,0,.12,0,.18l.09.36c.05.93.3,1.9.62,2.76-.72-1.56-1.51-4.1.21-5.28.08-.06.51-.33.6-.16Z"/>
  <path class="cls-25" d="M23.03,16.7c.33-.05.12.55.27.71l.27-.27c-.08.19-.29,1.12-.36,1.16-.03-.54-.13-1.07-.18-1.61Z"/>
  <path class="cls-5" d="M46.04,12.51c.59.79,1.24,1.97,1.54,3.05.04.13.14.34-.03.43-.5-1.15-.78-2.42-1.52-3.48Z"/>
  <path class="cls-21" d="M46.21,41.94c-.11.53-.21,1.02-.39,1.53-.11.31-.29.81-.51,1.05.21-.49.31-1.02.45-1.52.1-.36.19-.7.27-1.07h.18Z"/>
  <path class="cls-7" d="M11.88,20.89c-.23-.9-.16-1.59-.18-2.5l.18,1.47v1.02Z"/>
  <path class="cls-19" d="M45.95,34.27c-.61.15-1.16.23-1.78.27v-.18c.12,0,.24,0,.36,0l1.43-.09Z"/>
  <path class="cls-7" d="M41.31,9.39c.09.74.1,1.48.09,2.23-.19-.35-.06-.82-.09-1.2-.03-.35-.26-.83-.09-1.12.02.03.07.06.09.09Z"/>
  <path class="cls-6" d="M36.49,17.77c.08-.07.46-.45.53-.36,0,.41.01.83,0,1.25-.27.05-.17-.14-.18-.31,0-.21,0-.42,0-.63l-.36.04Z"/>
  <path class="cls-14" d="M45.32,44.53c-.29.68-.83,1.52-1.25,2.14l1.69-3.66c-.14.5-.24,1.03-.45,1.52Z"/>
  <path class="cls-21" d="M21.15,50.95c.94.62,1.94,1.21,3.03,1.52.05.02.11.06.18.09.35.16.62.25.98.36.2.06.5.13.71.18v.18c-2.05-.51-4.9-1.83-6.33-3.3.5.3.94.66,1.43.98Z"/>
  <path class="cls-19" d="M23.03,16.7c.05.53.15,1.07.18,1.61-.15.08-.16,0-.18-.13-.06-.47-.02-1.1-.09-1.56h.09s0,.06,0,.09Z"/>
  <path class="cls-6" d="M37.38,20.54c-.21-.47-.45-.82-.45-1.38,0-.22.1-.29.1-.31l.36,1.69Z"/>
  <path class="cls-19" d="M22.94,15.9c.01.17-.07.43.09.54,0,.03,0,.06,0,.09h-.09c-.06-.37-.42-.92-.27-1.34.1.22.18.48.27.71Z"/>
  <path class="cls-6" d="M41.13,13.31c0-.26.01-.59.18-.8-.03.44.05.31-.18.8Z"/>
  <path class="cls-19" d="M27.13,27.94c-.13.63-.41,1.22-.71,1.78-.14-.03.01-.29.05-.35.28-.6.56-1.25.76-1.88,0,.15-.06.3-.09.45Z"/>
  <path class="cls-7" d="M11.7,17.68h.18s0,.48,0,.48l-.18.06c0-.18,0-.36,0-.54Z"/>
  <path class="cls-7" d="M19.1,34.81s.1-.01.09.09l-.98-.09h.89Z"/>
  <path class="cls-7" d="M17.58,34.81c-.25.22-.62.06-.89,0h.89Z"/>
  <path class="cls-26" d="M15.62,8.68c.05.21.13.41.18.62l-.43-.85.07-.04c.02.12.11.18.18.27Z"/>
  <path class="cls-25" d="M23.65,16.97c-.19-.06,0-.26.05-.35.32-.58.53-.9.93-1.44-.3.6-.71,1.17-.98,1.78Z"/>
  <path class="cls-25" d="M23.03,16.43c-.16-.1-.08-.37-.09-.54.04.1.15.18.16.34.02.14-.08.19-.08.2Z"/>
  <path class="cls-13" d="M34,25.53h-.09c0-.21,0-.42,0-.62h.09c0,.2-.01.42,0,.62Z"/>
  <path class="cls-19" d="M22.58,15.01c-.08-.18-.29-.35-.26-.57l.08-.05c.09.2.18.4.18.62Z"/>
  <path class="cls-21" d="M19.19,49.52c.16-.02.32.22.45.36-.34,0-.37-.27-.45-.36Z"/>
  <path class="cls-19" d="M51.74,19.29c.09.36.22.73.36,1.07-.22-.38-.51-.89-.54-1.34.06.12.14.2.18.27Z"/>
  <path class="cls-26" d="M15.98,9.92s-.06-.12-.09-.27l.09.27Z"/>
  <path class="cls-25" d="M24.99,15.01l-.09-.09s-.01-.13,0-.18h.09c.09.11,0,.25,0,.27Z"/>
  <path class="cls-25" d="M24.72,15.1s.02-.1.09-.18l-.09.18Z"/>
  <path class="cls-26" d="M15.89,9.57s-.06-.05-.09-.18l.09.18Z"/>
  <path class="cls-27" d="M51.03,31.15c.06-.14.18-.24.27-.36.01.22-.16.25-.27.36Z"/>
  <path class="cls-27" d="M51.39,30.7l.09-.18s-.02.09-.09.18Z"/>
  <path class="cls-25" d="M23.03,16.61h-.09s0-.06,0-.09h.09s0,.06,0,.09Z"/>
  <path class="cls-7" d="M11.7,17.5s.08-.14.09-.04c0,.03-.07.06-.09.04Z"/>
  <path class="cls-6" d="M37.47,20.8l-.09-.04.09-.05s-.01.07,0,.09Z"/>
  <path class="cls-19" d="M34,25.62h-.09s0-.06,0-.09h.09s0,.06,0,.09Z"/>
  <path class="cls-22" d="M31.5,39.89c.05.27-.14.17-.31.18-1.05.04-2.48-.05-3.58-.09-.17,0-.36.09-.31-.18,1.4.04,2.79.1,4.19.09Z"/>
  <path class="cls-22" d="M36.67,39.71c-1.43.17-2.86.29-4.33.27-.15,0-.4.06-.49-.09.89-.01,1.79-.04,2.68-.09.71-.04,1.42-.15,2.14-.09Z"/>
  <path class="cls-14" d="M46.21,41.05c-.31.04-.13-.1-.12-.25.04-.65-.08-1.02-.15-1.62,0-.03,0-.06,0-.09.48.61.35,1.26.27,1.96Z"/>
  <path class="cls-24" d="M24.81,39.62c.51.04,1.02.05,1.52.18-.59-.01-1.2-.02-1.83-.09-.17-.02-.36.11-.31-.18.19.02.4.07.62.09Z"/>
  <path class="cls-24" d="M23.65,39.53s-.05.06-.11.06c-.49-.04-1.12-.14-1.58-.33.55.05,1.18.05,1.69.27Z"/>
  <path class="cls-24" d="M24.36,52.56c.24-.16.66.2.97.19v.17c-.35-.11-.62-.2-.97-.36Z"/>
  <path class="cls-24" d="M21.15,50.95l1,.45c.57.43,1.39.78,2.03,1.06-1.09-.31-2.09-.9-3.03-1.52Z"/>
  <path class="cls-24" d="M21.78,39.18s.08.05.09.09c-.22-.02-.53.09-.62-.18.15.02.34.07.54.09Z"/>
  <path class="cls-9" d="M16.6,34.36s0-.07-.05-.09c-1.73-.36-3.23-1.59-3.92-3.22-.82-1.91-.72-4.05-.4-6.06.21-.06.15.05.2.11.37.42.71,1.01,1.25,1.24.1.04.09.13.19-.02.12-.18.26-.77.39-1.04.94-2.06,3.76-5.47,3.76-7.65v-1.74c.57.24,1.06.81,1.41,1.31,1.18,1.66,1.44,3.24,1.35,5.25-.04.78-.4,2.03.17,2.75.72.9,2.15-1.78,2.19-2.34,1.96,4.16,1.47,8.87-2.81,11.24-.41.11-.83.2-1.25.27.18-.38.63-.6.89-.94.78-1.02.89-2.87.38-4.03-.26-.59-.91-1.18-1.05-1.81-.19-.89.08-1.75-.19-2.66-.09-.32-.32-.58-.39-.91-.93,1.44-2.12,3.02-2.74,4.61s-.64,3.68.39,5.1c.18.25.51.35.57.63-.11-.02-.24.01-.36,0Z"/>
  <path class="cls-13" d="M27.31,27.32l.18-3.17c-.05-.71-.2-1.39-.32-2.09-.02-.14-.12-.36.05-.45.39,1.66.6,4.06.09,5.71Z"/>
  <path class="cls-18" d="M42.29,33.92c-.26-.1-.59-.13-.92-.28-3.29-1.5-4.21-5.03-3.67-8.37.33.32.71.7,1.09.97.84.6.62-.05.86-.72.89-2.54,2.74-4.3,3.09-6.99.11-.88.05-1.74-.03-2.62,1.7,1.21,2.85,3.16,3.15,5.23.15,1.03.04,2.08.22,3.08.11.64.13.99.87.65.86-.39,1.07-1.99,1.29-2.81,1.3,2.13,1.83,5.36,1.07,7.76-.57,1.81-1.92,3.09-3.52,4.01l-.62.18c-.06,0-.12-.01-.18,0,1-1.23,1.4-2.23,1.25-3.88-.14-1.45-1.14-1.98-1.49-3.15s-.07-2.46-.78-3.5c-.92,1.88-2.36,3.65-2.71,5.76-.27,1.65.14,3.3,1.06,4.67Z"/>
  <path class="cls-1" d="M44.97,34c-.38.07-.67.21-1.16.27-.06,0-.12,0-.18,0l-.8-.09c-.16-.06-.38-.21-.54-.27-.92-1.38-1.33-3.02-1.06-4.67.34-2.11,1.79-3.89,2.71-5.76.72,1.04.44,2.35.78,3.5s1.35,1.7,1.49,3.15c.16,1.64-.25,2.64-1.25,3.88Z"/>
  <path class="cls-19" d="M52.64,21.96c-.05-.09-.21-.21-.21-.37l-.24-1.05c.17.46.44.92.45,1.43Z"/>
  <path class="cls-19" d="M53.08,24.19h-.18c-.01-.3.01-.6,0-.89.14.23.17.62.18.89Z"/>
  <path class="cls-2" d="M44.97,34s.03.12-.01.16c-.07.07-.36.02-.43.2-.12,0-.24,0-.36,0s-.29.05-.36-.09c.49-.06.78-.2,1.16-.27Z"/>
  <path class="cls-2" d="M43.63,34.27c-.47.04-.28.12-.8-.09l.8.09Z"/>
  <path class="cls-19" d="M52.9,23.21c-.12-.17-.27-.57-.09-.71.06.27.07.43.09.71Z"/>
  <path class="cls-2" d="M45.77,33.83c-.45.26-.28.13-.62.18l.62-.18Z"/>
  <path class="cls-19" d="M52.73,22.32c-.06-.2,0-.17,0-.18v.18Z"/>
  <path class="cls-1" d="M19.1,34.36c-.98.17-1.17.15-2.14,0-.06-.28-.39-.38-.57-.63-1.03-1.42-1-3.53-.39-5.1s1.81-3.18,2.74-4.61c.06.33.29.59.39.91.27.92,0,1.78.19,2.66.14.63.79,1.21,1.05,1.81.51,1.16.4,3.01-.38,4.03-.26.34-.71.56-.89.94Z"/>
  <path class="cls-14" d="M14.46,40.34c0-.24.06-.31.09-.45,0,.14.06.37-.09.45Z"/>
  <path class="cls-14" d="M14.55,40.87l-.09-.36.09.36Z"/>
</svg>